<svg width="120" height="40" viewBox="0 0 120 40" fill="none" xmlns="http://www.w3.org/2000/svg">
<g clip-path="url(#clip0_1_275)">
<path fill-rule="evenodd" clip-rule="evenodd" d="M115.227 40H4.43348C1.99 40 0 37.7456 0 35V5C0 2.24439 1.99 0 4.43348 0H115.227C117.668 0 119.66 2.24439 119.66 5V35C119.66 37.7456 117.668 40 115.227 40Z" fill="black"/>
<path fill-rule="evenodd" clip-rule="evenodd" d="M115.227 0.800499C117.276 0.800499 118.953 2.68828 118.953 5V35C118.953 37.3117 117.287 39.1995 115.227 39.1995H4.43348C2.38404 39.1995 0.706628 37.3117 0.706628 35V5C0.706628 2.68828 2.37304 0.800499 4.43348 0.800499C4.43348 0.800499 115.227 0.800499 115.227 0.800499ZM115.227 0H4.43348C1.99 0 0 2.25436 0 5V35C0 37.7556 1.99 40 4.43348 40H115.227C117.668 40 119.66 37.7556 119.66 35V5C119.66 2.25436 117.668 0 115.227 0Z" fill="#A6A6A6"/>
<path d="M63.0374 13.2319C62.2383 13.2319 61.5647 12.9152 61.0319 12.2918C60.5036 11.6858 60.2086 10.8504 60.2218 9.99751C60.2218 9.08728 60.4948 8.31671 61.0319 7.70574C61.5625 7.0823 62.2361 6.76559 63.0351 6.76559C63.8254 6.76559 64.499 7.0823 65.0406 7.70574C65.5777 8.33666 65.8507 9.10723 65.8507 9.99751C65.8418 10.9102 65.5689 11.6808 65.0406 12.2893C64.51 12.9177 63.8364 13.2319 63.0374 13.2319ZM39.2608 13.2319C38.4793 13.2319 37.8013 12.9202 37.2465 12.3042C36.6962 11.6908 36.4166 10.9152 36.4166 10C36.4166 9.08479 36.6962 8.30923 37.2465 7.69576C37.7903 7.0798 38.4683 6.76808 39.2608 6.76808C39.6482 6.76808 40.0246 6.85536 40.3856 7.03242C40.7401 7.20449 41.0284 7.4389 41.242 7.72569L41.2948 7.79801L40.6982 8.46135L40.6366 8.37905C40.2998 7.92519 39.8485 7.70324 39.252 7.70324C38.7192 7.70324 38.2548 7.91771 37.8717 8.34165C37.4865 8.76808 37.2906 9.32668 37.2906 10.0025C37.2906 10.6783 37.4865 11.2369 37.8717 11.6633C38.2548 12.0873 38.7192 12.3017 39.252 12.3017C39.8199 12.3017 40.2976 12.0873 40.6696 11.6633C40.8897 11.414 41.0262 11.0648 41.0747 10.6234H39.1617V9.69077H41.8958L41.9068 9.77556C41.9266 9.93267 41.9464 10.0948 41.9464 10.2444C41.9464 11.1047 41.7174 11.8005 41.264 12.3142C40.7489 12.9227 40.0753 13.2319 39.2608 13.2319ZM70.8741 13.0998H70.031L67.4488 8.41895L67.4708 9.26185V13.0973H66.6277V6.90025H67.5897L67.6161 6.94763L70.0442 11.3566L70.0222 10.5162V6.90025H70.8741V13.0998V13.0998ZM56.7019 13.0998H55.8478V7.83292H54.3663V6.90025H58.1812V7.83292H56.6997V13.0998H56.7019ZM53.6707 13.0998H52.8188V6.90025H53.6707V13.0998ZM48.8828 13.0998H48.0309V7.83292H46.5494V6.90025H50.3643V7.83292H48.8828V13.0998ZM46.01 13.0898H42.7433V6.90025H46.01V7.83292H43.5974V9.53367H45.7745V10.4564H43.5974V12.1571H46.01V13.0898ZM61.6571 11.6509C62.0379 12.0823 62.5002 12.2993 63.0374 12.2993C63.5899 12.2993 64.0412 12.0873 64.4176 11.6509C64.7918 11.2269 64.9811 10.6708 64.9811 10C64.9811 9.32918 64.7918 8.77057 64.4198 8.34913C64.039 7.91771 63.5745 7.70075 63.0396 7.70075C62.487 7.70075 62.0357 7.91272 61.6615 8.34913C61.2873 8.77307 61.098 9.32918 61.098 10C61.098 10.6708 61.2851 11.2294 61.6571 11.6509Z" fill="white"/>
<path fill-rule="evenodd" clip-rule="evenodd" d="M60.1426 21.7556C58.0623 21.7556 56.3761 23.5436 56.3761 26.01C56.3761 28.4539 58.0733 30.2643 60.1426 30.2643C62.2228 30.2643 63.9091 28.4638 63.9091 26.01C63.9091 23.5436 62.2228 21.7556 60.1426 21.7556ZM60.1426 28.5786C59.0045 28.5786 58.0249 27.5112 58.0249 26C58.0249 24.4663 59.0067 23.4214 60.1426 23.4214C61.2807 23.4214 62.2603 24.4663 62.2603 26C62.2625 27.5212 61.2807 28.5786 60.1426 28.5786ZM51.925 21.7556C49.8448 21.7556 48.1585 23.5436 48.1585 26.01C48.1585 28.4539 49.8558 30.2643 51.925 30.2643C54.0053 30.2643 55.6915 28.4638 55.6915 26.01C55.6915 23.5436 54.0031 21.7556 51.925 21.7556ZM51.925 28.5786C50.7869 28.5786 49.8073 27.5112 49.8073 26C49.8073 24.4663 50.7891 23.4214 51.925 23.4214C53.0631 23.4214 54.0427 24.4663 54.0427 26C54.0427 27.5212 53.0631 28.5786 51.925 28.5786ZM42.1467 23.0549V24.8554H45.9616C45.8449 25.8653 45.55 26.611 45.0987 27.1222C44.5395 27.7556 43.6766 28.4439 42.1555 28.4439C39.8111 28.4439 37.9774 26.2992 37.9774 23.6434C37.9774 20.9875 39.8111 18.8429 42.1555 18.8429C43.4213 18.8429 44.3436 19.409 45.0282 20.1322L46.1553 18.8554C45.2043 17.8229 43.9386 17.0324 42.1643 17.0324C38.9482 17.0324 36.2493 20 36.2493 23.6334C36.2493 27.2768 38.946 30.2344 42.1643 30.2344C43.9012 30.2344 45.2043 29.591 46.2346 28.3791C47.2846 27.1895 47.617 25.5112 47.617 24.1571C47.617 23.7357 47.5884 23.3566 47.529 23.0349H42.1445C42.1467 23.0324 42.1467 23.0549 42.1467 23.0549ZM82.1427 24.4564C81.8279 23.5012 80.8769 21.7456 78.9266 21.7456C76.9938 21.7456 75.3868 23.4688 75.3868 26C75.3868 28.389 76.9762 30.2544 79.1137 30.2544C80.8307 30.2544 81.8301 29.0648 82.2418 28.3666L80.9672 27.399C80.5445 28.1097 79.9568 28.5761 79.1225 28.5761C78.2794 28.5761 77.6894 28.1421 77.2976 27.2868L82.3188 24.9302C82.3188 24.9327 82.1427 24.4564 82.1427 24.4564ZM77.0224 25.8778C76.9828 24.2344 78.1495 23.399 78.9838 23.399C79.642 23.399 80.1901 23.7656 80.3772 24.2993L77.0224 25.8778ZM72.9433 30H74.5921V17.5012H72.9433V30ZM70.2357 22.7007H70.1763C69.8042 22.1995 69.0976 21.7456 68.1951 21.7456C66.3217 21.7456 64.5959 23.6135 64.5959 26.0125C64.5959 28.4015 66.3129 30.2469 68.1951 30.2469C69.0866 30.2469 69.8042 29.7905 70.1763 29.2793H70.2357V29.8903C70.2357 31.5137 69.4696 32.389 68.2347 32.389C67.2243 32.389 66.5969 31.5661 66.3415 30.8778L64.9085 31.5561C65.3201 32.6783 66.4186 34.0673 68.2325 34.0673C70.1653 34.0673 71.803 32.7781 71.803 29.6334V22H70.2445V22.7007C70.2467 22.7007 70.2357 22.7007 70.2357 22.7007ZM68.3426 28.5786C67.2045 28.5786 66.2535 27.5012 66.2535 26.0125C66.2535 24.5112 67.2045 23.4239 68.3426 23.4239C69.4696 23.4239 70.3436 24.5237 70.3436 26.0125C70.3546 27.5012 69.4718 28.5786 68.3426 28.5786ZM89.8628 17.5012H85.9202V30H87.569V25.2668H89.865C91.6899 25.2668 93.484 23.7681 93.484 21.389C93.484 19.01 91.6965 17.5012 89.8628 17.5012ZM89.9112 23.5212H87.5668V19.2319H89.9112C91.1461 19.2319 91.844 20.3865 91.844 21.3766C91.844 22.3566 91.1373 23.5212 89.9112 23.5212ZM100.092 21.7332C98.8948 21.7332 97.6599 22.3342 97.1492 23.6434L98.6109 24.3317C98.9257 23.6434 99.5024 23.409 100.112 23.409C100.966 23.409 101.829 23.9875 101.849 25.0199V25.1521C101.554 24.9626 100.907 24.6733 100.132 24.6733C98.5536 24.6733 96.9533 25.6509 96.9533 27.4838C96.9533 29.1621 98.2477 30.2394 99.6895 30.2394C100.797 30.2394 101.407 29.6733 101.787 29.0175H101.847V29.985H103.436V25.197C103.436 22.9676 101.975 21.7332 100.092 21.7332ZM99.8854 28.5786C99.3461 28.5786 98.5911 28.2793 98.5911 27.5112C98.5911 26.5436 99.5332 26.1771 100.337 26.1771C101.063 26.1771 101.407 26.3541 101.838 26.5985C101.719 27.7207 100.883 28.5686 99.8854 28.5786ZM109.235 22L107.341 27.4214H107.282L105.321 22H103.546L106.489 29.5786L104.812 33.7905H106.529L111.057 22H109.235ZM94.3931 30H96.0419V17.5012H94.3931V30Z" fill="white"/>
<path d="M18.4393 19.2885L8.91237 30.5957C9.02175 31.0234 9.21534 31.4174 9.47859 31.748C9.74183 32.0786 10.0679 32.3373 10.4321 32.5045C10.7964 32.6718 11.1894 32.7432 11.5816 32.7135C11.9737 32.6837 12.3548 32.5536 12.6962 32.3328L23.4158 25.4166L18.4393 19.2885Z" fill="#EA4335"/>
<path d="M28.0731 17.3663L23.4374 14.3585L18.2196 19.5457L23.4587 25.4004L28.0589 22.4248C28.3527 22.2518 28.6135 22.0148 28.8262 21.7273C29.0388 21.4397 29.1993 21.1075 29.2982 20.7495C29.3972 20.3915 29.4327 20.0149 29.4028 19.6413C29.3728 19.2678 29.278 18.9046 29.1238 18.5726C28.8831 18.0591 28.5123 17.6389 28.0589 17.3663H28.0731Z" fill="#FBBC04"/>
<path d="M8.91254 9.13919C8.85585 9.38057 8.82721 9.62929 8.82735 9.87907V29.8558C8.82721 30.1055 8.85585 30.3543 8.91254 30.5956L18.7661 19.5779L8.91254 9.13919Z" fill="#4285F4"/>
<path d="M18.5103 19.8674L23.4371 14.3586L12.7317 7.41016C12.3288 7.1433 11.8708 7.00181 11.4041 7.00001C10.8405 6.99874 10.2919 7.20631 9.84201 7.59107C9.39215 7.97583 9.06568 8.51668 8.91237 9.13118L18.5103 19.8674Z" fill="#34A853"/>
</g>
<defs>
<clipPath id="clip0_1_275">
<rect width="119.66" height="40" fill="white"/>
</clipPath>
</defs>
</svg>
